<svg xmlns="http://www.w3.org/2000/svg" width="943" height="202" viewBox="0 0 943 202">
  <g fill="none">
    <path fill="#15141C" d="M247.2,152 C253,152 259.4,150.8 263,149.6 L263,128.2 C259.6,129.4 255.4,130 252,130 C241.6,130 237,125.6 237,115.8 L237,71 L263,71 L263,50 L237,50 L237,20 L213,20 L213,50 L197,50 L197,71 L213,71 L213,117.4 C213,144.2 227.4,152 247.2,152 Z M293,30 C301.8,30 308,23.4 308,15 C308,6.4 301.8,0 293,0 C284.4,0 278,6.4 278,15 C278,23.4 284.4,30 293,30 Z M305,150 L305,50 L281,50 L281,150 L305,150 Z M372.2,152 C400,152 421.2,134.4 422.4,108 L397.6,108 C395.6,122.6 384.8,130 372.2,130 C357.2,130 346,118 346,100 C346,82 357.2,70 372.2,70 C384.8,70 395.4,76.6 397,89.8 L422.2,89.8 C419.8,64.8 399.2,48 372.2,48 C343.4,48 322,69.4 322,100 C322,130.6 343.4,152 372.2,152 Z M463.4,150 L463.4,97.4 L506.4,150 L536.4,150 L489.8,95.4 L533.8,50 L502.2,50 L463.4,93.6 L463.4,0 L439.4,0 L439.4,150 L463.4,150 Z M583.4,152 C595.4,152 606,146.6 613.4,137.4 L613.4,150 L637.4,150 L637.4,0 L613.4,0 L613.4,62.6 C606,53.4 595.4,48 583.4,48 C556,48 535.4,69.4 535.4,100 C535.4,130.6 556,152 583.4,152 Z M586.4,130 C571,130 559.4,118 559.4,100 C559.4,82 571,70 586.4,70 C601.8,70 613.4,82 613.4,100 C613.4,118 601.8,130 586.4,130 Z M690,152 C703.8,152 715.4,147 721.8,135.2 L721.8,150 L745.4,150 L745.4,80.4 C745.4,57 725,48 703,48 C680.6,48 659.4,58 659.4,84 L684.4,84 C684.4,72.8 692,67 703,67 C713.4,67 721.4,71.6 721.4,79.4 C721.4,99.4 656.4,80.2 656.4,123.2 C656.4,143.4 672.8,152 690,152 Z M695,132 C687,132 681,128.6 681,121.6 C681,108.8 705.8,110.8 721.8,104.2 L721.8,108.8 C721.8,124 709,132 695,132 Z M770.2,202 C795.6,202 806.4,185 814.8,160.4 L852.6,50 L828.6,50 L803.4,127 L778.4,50 L754.4,50 L792,160.2 C786.2,174.2 779.2,180.8 768,180.8 C763.2,180.8 758.6,179.8 754.8,178.6 L754.8,199.8 C758.6,201 764.4,202 770.2,202 Z M901.6,152 C925,152 942.4,140.2 942.4,121.2 C942.4,80 883.6,96.4 883.6,77.2 C883.6,70.8 889.6,67 898.6,67 C908.4,67 915.6,73.4 915.6,81.8 L940.6,81.8 C940.6,62.8 922.6,48 898.6,48 C876.4,48 859.4,59.6 859.4,78.2 C859.4,119 917.6,101 917.6,122.2 C917.6,129.6 911.6,133.2 901.6,133.2 C890.8,133.2 882.6,127.8 882.6,117 L857.6,117 C857.6,139.2 876.6,152 901.6,152 Z"/>
    <path fill="#F8BB14" d="M85.1666667,34 C118.763989,34 146,61.0867726 146,94.5 C146,127.913227 118.763989,155 85.1666667,155 L60.8333333,155 C27.2360111,155 0,127.913227 0,94.5 C0,61.0867726 27.2360111,34 60.8333333,34 L85.1666667,34 Z M85.6538462,67 L61.3461538,67 C46.2432901,67 34,79.3121694 34,94.5 C34,109.535952 45.9996486,121.753469 60.8939352,121.996316 L61.3461538,122 L85.6538462,122 C100.75671,122 113,109.687831 113,94.5 C113,79.4640477 101.000351,67.246531 86.1060648,67.0036842 L85.6538462,67 Z"/>
  </g>
</svg>
